<?xml version="1.0" standalone="no"?>
<!DOCTYPE svg PUBLIC "-//W3C//DTD SVG 20010904//EN"
 "http://www.w3.org/TR/2001/REC-SVG-20010904/DTD/svg10.dtd">
<svg version="1.0" xmlns="http://www.w3.org/2000/svg"
 width="51.000000pt" height="57.000000pt" viewBox="0 0 51.000000 57.000000"
 preserveAspectRatio="xMidYMid meet">

<g transform="translate(0.000000,57.000000) scale(0.100000,-0.100000)"
fill="#000000" stroke="none">
<path d="M189 557 c-58 -22 -96 -54 -118 -100 -26 -53 -28 -135 -4 -180 20
-40 173 -207 188 -207 17 0 168 167 190 209 26 51 18 147 -18 198 -51 73 -159
109 -238 80z m31 -142 c0 -33 2 -35 35 -35 33 0 35 2 35 35 0 31 3 35 25 35
25 0 25 -1 25 -90 0 -89 0 -90 -25 -90 -21 0 -25 5 -25 30 0 28 -3 30 -35 30
-32 0 -35 -2 -35 -30 0 -25 -4 -30 -25 -30 -25 0 -25 1 -25 90 0 89 0 90 25
90 22 0 25 -4 25 -35z"/>
<path d="M43 133 c-67 -34 -43 -88 50 -115 54 -16 270 -16 324 0 58 17 98 52
89 79 -8 27 -82 61 -98 45 -8 -8 0 -15 31 -28 22 -9 41 -22 41 -29 0 -7 -21
-22 -47 -32 -69 -26 -287 -26 -355 0 -27 10 -48 25 -48 32 0 7 20 21 45 31 25
9 45 21 45 25 0 14 -42 9 -77 -8z"/>
</g>
</svg>
