<?xml version="1.0" standalone="no"?>
<!DOCTYPE svg PUBLIC "-//W3C//DTD SVG 20010904//EN"
 "http://www.w3.org/TR/2001/REC-SVG-20010904/DTD/svg10.dtd">
<svg version="1.0" xmlns="http://www.w3.org/2000/svg"
 width="80.000000pt" height="80.000000pt" viewBox="0 0 80.000000 80.000000"
 preserveAspectRatio="xMidYMid meet">

<g transform="translate(0.000000,80.000000) scale(0.100000,-0.100000)"
fill="#000000" stroke="none">
<path d="M130 770 c0 -23 -4 -30 -20 -30 -39 0 -86 -27 -99 -57 -9 -21 -11
-111 -9 -331 3 -298 3 -302 26 -324 21 -22 31 -23 205 -26 l182 -3 -29 30 -30
31 -136 0 c-92 0 -140 4 -148 12 -9 9 -12 73 -12 225 l0 213 340 0 340 0 0
-33 c0 -24 8 -41 30 -62 l30 -29 0 138 c0 101 -4 144 -15 165 -14 28 -58 51
-96 51 -14 0 -19 7 -19 30 0 27 -3 30 -30 30 -27 0 -30 -3 -30 -30 l0 -30
-210 0 -210 0 0 30 c0 27 -3 30 -30 30 -27 0 -30 -3 -30 -30z m0 -125 c0 -32
2 -35 29 -35 26 0 30 4 33 33 l3 32 205 0 205 0 3 -32 c3 -29 7 -33 33 -33 27
0 29 3 29 35 0 37 14 44 51 25 14 -8 19 -21 19 -55 l0 -45 -340 0 -340 0 0 45
c0 45 15 64 53 65 13 0 17 -8 17 -35z"/>
<path d="M120 410 c0 -27 3 -30 30 -30 27 0 30 3 30 30 0 27 -3 30 -30 30 -27
0 -30 -3 -30 -30z"/>
<path d="M250 410 c0 -25 4 -30 25 -30 21 0 25 5 25 30 0 25 -4 30 -25 30 -21
0 -25 -5 -25 -30z"/>
<path d="M370 410 c0 -27 3 -30 30 -30 27 0 30 3 30 30 0 27 -3 30 -30 30 -27
0 -30 -3 -30 -30z"/>
<path d="M505 401 c-140 -65 -167 -247 -52 -348 84 -73 202 -68 283 12 74 75
83 185 21 268 -61 80 -165 108 -252 68z m156 -63 c74 -41 99 -143 51 -207 -50
-67 -116 -85 -185 -52 -80 39 -108 128 -64 205 41 73 125 95 198 54z"/>
<path d="M560 245 l0 -65 55 0 c54 0 55 0 55 30 0 25 -4 30 -25 30 -22 0 -25
4 -25 35 0 32 -2 35 -30 35 l-30 0 0 -65z"/>
<path d="M120 280 c0 -27 3 -30 30 -30 27 0 30 3 30 30 0 27 -3 30 -30 30 -27
0 -30 -3 -30 -30z"/>
<path d="M250 280 c0 -25 4 -30 25 -30 21 0 25 5 25 30 0 25 -4 30 -25 30 -21
0 -25 -5 -25 -30z"/>
<path d="M120 160 c0 -27 3 -30 30 -30 27 0 30 3 30 30 0 27 -3 30 -30 30 -27
0 -30 -3 -30 -30z"/>
<path d="M250 160 c0 -25 4 -30 25 -30 21 0 25 5 25 30 0 25 -4 30 -25 30 -21
0 -25 -5 -25 -30z"/>
</g>
</svg>
