<?xml version="1.0" standalone="no"?>
<!DOCTYPE svg PUBLIC "-//W3C//DTD SVG 20010904//EN"
 "http://www.w3.org/TR/2001/REC-SVG-20010904/DTD/svg10.dtd">
<svg version="1.0" xmlns="http://www.w3.org/2000/svg"
 width="100.000000pt" height="96.000000pt" viewBox="0 0 100.000000 96.000000"
 preserveAspectRatio="xMidYMid meet">

<g transform="translate(0.000000,96.000000) scale(0.100000,-0.100000)"
fill="#000000" stroke="none">
<path d="M645 950 c-3 -5 -20 -10 -37 -10 -29 0 -30 -1 -15 -18 10 -10 17 -31
17 -45 0 -15 9 -35 20 -44 11 -10 22 -31 24 -48 33 -215 33 -214 -22 -215 -22
0 -22 1 -6 25 9 14 14 28 12 31 -3 3 -36 -31 -72 -76 -37 -44 -86 -101 -110
-127 l-43 -46 -58 46 c-31 26 -60 47 -65 47 -4 0 -40 -32 -79 -71 -53 -53 -75
-69 -90 -64 -15 4 -28 -6 -57 -44 -22 -29 -45 -48 -52 -46 -28 10 -5 -15 76
-80 51 -42 81 -73 78 -81 -4 -10 3 -14 19 -14 15 0 26 -7 30 -21 5 -16 40 -39
60 -39 15 0 75 66 75 82 0 27 -18 58 -35 58 -7 0 -21 7 -30 16 -14 15 -13 20
22 58 21 23 54 62 74 87 93 112 114 136 148 171 40 41 91 61 91 35 0 -17 34
-32 50 -22 15 9 12 -34 -6 -112 -14 -59 -14 -83 -4 -173 17 -141 14 -152 -33
-163 -57 -14 -31 -37 42 -37 l57 0 13 75 c8 42 11 100 8 130 -5 49 8 115 23
115 8 0 63 -95 99 -170 17 -36 36 -73 43 -83 11 -15 10 -20 -2 -27 -8 -5 -24
-15 -35 -24 -18 -13 -18 -15 -3 -21 9 -4 42 1 73 10 51 14 56 18 50 38 -3 12
-8 31 -10 43 -1 12 -10 35 -19 52 -9 17 -16 36 -16 42 0 7 -16 48 -35 92 -39
87 -54 146 -57 211 -1 23 -10 60 -19 82 -11 24 -19 64 -19 99 0 78 -29 140
-72 155 -23 8 -29 15 -23 28 17 43 17 55 -5 78 -24 25 -64 33 -75 15z m-365
-874 c0 -3 -4 -8 -10 -11 -5 -3 -10 -1 -10 4 0 6 5 11 10 11 6 0 10 -2 10 -4z"/>
</g>
</svg>
