<?xml version="1.0" standalone="no"?>
<!DOCTYPE svg PUBLIC "-//W3C//DTD SVG 20010904//EN"
 "http://www.w3.org/TR/2001/REC-SVG-20010904/DTD/svg10.dtd">
<svg version="1.0" xmlns="http://www.w3.org/2000/svg"
 width="58.000000pt" height="58.000000pt" viewBox="0 0 58.000000 58.000000"
 preserveAspectRatio="xMidYMid meet">

<g transform="translate(0.000000,58.000000) scale(0.100000,-0.100000)"
fill="#000000" stroke="none">
<path d="M54 572 c-40 -26 -61 -135 -31 -157 14 -10 17 -29 17 -101 0 -78 -2
-91 -20 -102 -22 -14 -27 -51 -8 -70 9 -9 86 -12 284 -12 239 0 273 2 278 16
10 27 7 44 -14 61 -17 15 -20 30 -20 110 0 57 4 93 10 93 35 0 27 108 -11 149
-19 20 -30 21 -247 21 -125 0 -232 -4 -238 -8z m449 -171 c4 0 7 -41 7 -91 l0
-90 -55 0 c-50 0 -60 4 -89 33 -28 27 -32 37 -29 69 4 30 1 38 -17 48 -46 25
-95 -17 -76 -65 4 -10 -7 -29 -29 -50 -31 -32 -40 -35 -90 -35 l-55 0 0 89 c0
53 4 91 10 93 10 3 403 2 423 -1z"/>
<path d="M40 61 c0 -59 9 -61 250 -61 241 0 250 2 250 61 l0 29 -250 0 -250 0
0 -29z"/>
</g>
</svg>
