<?xml version="1.0" standalone="no"?>
<!DOCTYPE svg PUBLIC "-//W3C//DTD SVG 20010904//EN"
 "http://www.w3.org/TR/2001/REC-SVG-20010904/DTD/svg10.dtd">
<svg version="1.0" xmlns="http://www.w3.org/2000/svg"
 width="114.000000pt" height="71.000000pt" viewBox="0 0 114.000000 71.000000"
 preserveAspectRatio="xMidYMid meet">

<g transform="translate(0.000000,71.000000) scale(0.100000,-0.100000)"
fill="#000000" stroke="none">
<path d="M122 684 c-29 -14 -52 -29 -52 -34 0 -4 13 -10 29 -13 47 -10 93 -68
173 -220 140 -264 216 -377 272 -404 78 -37 132 26 198 230 44 138 82 202 128
219 28 9 28 11 15 32 -19 29 -67 63 -97 71 -39 10 -83 -36 -135 -139 -49 -98
-77 -136 -102 -136 -11 0 -45 52 -95 143 -100 181 -131 223 -182 253 -52 31
-87 30 -152 -2z"/>
<path d="M825 626 c-16 -8 -39 -20 -49 -28 -18 -14 -16 -15 21 -21 71 -12 130
-102 184 -284 14 -48 18 -48 109 -12 43 16 45 19 43 56 -4 94 -73 223 -144
270 -47 31 -120 40 -164 19z"/>
<path d="M31 599 c-37 -39 -38 -148 -4 -244 10 -29 13 -60 8 -113 -8 -84 8
-122 49 -122 21 0 127 74 149 105 17 24 2 70 -30 90 -35 22 -50 57 -60 143 -5
45 -3 56 16 76 l22 23 -36 32 c-42 37 -85 41 -114 10z"/>
</g>
</svg>
