<?xml version="1.0" standalone="no"?>
<!DOCTYPE svg PUBLIC "-//W3C//DTD SVG 20010904//EN"
 "http://www.w3.org/TR/2001/REC-SVG-20010904/DTD/svg10.dtd">
<svg version="1.0" xmlns="http://www.w3.org/2000/svg"
 width="102.000000pt" height="72.000000pt" viewBox="0 0 102.000000 72.000000"
 preserveAspectRatio="xMidYMid meet">

<g transform="translate(0.000000,72.000000) scale(0.100000,-0.100000)"
fill="#000000" stroke="none">
<path d="M310 360 c0 -313 2 -360 15 -360 13 0 15 47 15 360 0 313 -2 360 -15
360 -13 0 -15 -47 -15 -360z"/>
<path d="M680 361 c0 -355 0 -361 20 -361 20 0 20 5 18 357 -3 332 -4 358 -20
361 -17 3 -18 -19 -18 -357z"/>
<path d="M92 690 c-41 -9 -45 -13 -48 -47 -3 -27 -22 -46 -36 -36 -5 2 -8
-118 -6 -267 l3 -272 24 -19 c34 -28 178 -28 212 0 l24 19 3 279 c1 161 -1
272 -6 265 -13 -19 -45 15 -39 40 9 31 -67 53 -131 38z m104 -18 c7 -4 -23 -7
-67 -7 -43 0 -71 3 -61 7 23 9 114 9 128 0z m40 -138 c7 -8 10 -34 8 -57 -3
-34 -2 -37 5 -17 6 17 9 -30 10 -137 1 -98 -3 -164 -9 -168 -6 -4 -10 41 -10
127 l0 133 -43 2 c-23 1 -70 0 -104 -3 l-63 -6 0 -129 c0 -84 -4 -128 -10
-124 -6 4 -10 70 -9 168 1 107 4 152 10 132 7 -25 8 -22 4 16 -2 27 1 53 8 63
26 36 177 36 203 0z m2 -437 c3 -16 -63 -47 -103 -47 -54 0 -121 40 -101 61 2
2 49 3 103 3 78 -1 99 -5 101 -17z"/>
<path d="M475 691 c-36 -9 -76 -30 -57 -31 9 0 11 -7 6 -22 -9 -29 -26 -41
-36 -25 -5 7 -7 -113 -6 -266 l3 -279 24 -19 c34 -28 178 -28 212 0 l24 19 3
274 c2 150 0 270 -4 266 -3 -4 -15 -3 -26 3 -14 8 -19 18 -15 35 3 16 -1 28
-12 33 -26 14 -84 19 -116 12z m97 -19 c10 -4 -16 -7 -56 -7 -41 0 -69 3 -62
7 14 9 95 9 118 0z m22 -122 c23 -8 26 -15 27 -62 1 -42 3 -48 9 -28 5 15 8
-43 7 -139 -2 -131 -5 -165 -16 -169 -12 -4 -13 19 -9 138 3 78 2 136 -2 130
-5 -8 -21 -10 -48 -5 -23 3 -66 3 -96 0 l-56 -7 0 -129 c0 -79 -4 -129 -10
-129 -6 0 -10 62 -9 168 1 109 4 157 10 137 6 -23 7 -17 3 22 -4 45 -2 53 18
67 26 18 131 22 172 6z m21 -451 c0 -18 -62 -49 -97 -49 -57 0 -125 40 -104
61 2 2 49 3 103 3 75 -1 98 -5 98 -15z"/>
<path d="M844 691 c-44 -11 -53 -18 -47 -40 5 -20 -23 -54 -38 -45 -6 4 -9
-93 -7 -266 l3 -272 24 -19 c34 -28 178 -28 212 0 l24 19 2 279 c1 153 0 272
-3 266 -10 -24 -47 6 -41 33 3 16 -1 28 -12 33 -26 14 -84 19 -117 12z m100
-17 c9 -3 16 -10 16 -15 0 -6 -8 -5 -19 1 -11 5 -36 10 -56 10 -20 0 -45 -5
-56 -10 -11 -7 -19 -7 -19 -1 0 5 6 12 13 14 18 8 103 8 121 1z m35 -133 c15
-15 18 -30 15 -63 -3 -34 -2 -38 5 -18 6 17 9 -30 10 -137 1 -98 -3 -164 -9
-168 -6 -4 -10 41 -10 127 l0 133 -105 0 -105 0 0 -133 c0 -86 -4 -131 -10
-127 -6 4 -10 70 -9 168 1 107 4 154 10 137 7 -20 8 -16 5 18 -6 66 15 82 109
82 61 0 79 -4 94 -19z m9 -443 c3 -17 -62 -48 -103 -48 -54 0 -121 40 -101 61
2 2 49 4 103 3 80 0 99 -3 101 -16z"/>
</g>
</svg>
