<?xml version="1.0" standalone="no"?>
<!DOCTYPE svg PUBLIC "-//W3C//DTD SVG 20010904//EN"
 "http://www.w3.org/TR/2001/REC-SVG-20010904/DTD/svg10.dtd">
<svg version="1.0" xmlns="http://www.w3.org/2000/svg"
 width="57.000000pt" height="57.000000pt" viewBox="0 0 57.000000 57.000000"
 preserveAspectRatio="xMidYMid meet">

<g transform="translate(0.000000,57.000000) scale(0.100000,-0.100000)"
fill="#000000" stroke="none">
<path d="M55 556 c-50 -22 -55 -46 -55 -272 0 -223 5 -250 55 -272 40 -18 427
-16 464 2 46 24 51 50 51 271 0 221 -5 247 -51 271 -38 19 -419 20 -464 0z
m446 -46 c18 -10 19 -23 19 -223 0 -152 -3 -216 -12 -225 -17 -17 -429 -17
-446 0 -17 17 -17 429 0 446 15 15 410 17 439 2z"/>
<path d="M188 420 c-9 -6 -22 -26 -28 -45 -8 -24 -18 -35 -31 -35 -12 0 -19
-7 -19 -20 0 -11 5 -20 10 -20 6 0 10 -33 10 -80 l0 -80 29 0 c23 0 30 5 33
23 3 21 7 22 93 22 86 0 90 -1 93 -22 3 -18 10 -23 33 -23 l29 0 0 80 c0 47 4
80 10 80 6 0 10 9 10 20 0 13 -7 20 -19 20 -13 0 -23 11 -31 35 -6 19 -20 40
-30 45 -24 13 -170 12 -192 0z m176 -36 c9 -8 16 -19 16 -24 0 -5 3 -15 6 -24
5 -14 -7 -16 -101 -16 -94 0 -106 2 -101 16 3 9 6 19 6 24 0 26 34 40 95 40
44 0 68 -5 79 -16z m-136 -133 c-4 -19 -36 -27 -50 -13 -6 6 -8 17 -5 25 8 21
59 10 55 -12z m168 -6 c-8 -21 -50 -16 -54 7 -2 11 5 18 20 20 29 5 43 -6 34
-27z"/>
</g>
</svg>
