<?xml version="1.0" standalone="no"?>
<!DOCTYPE svg PUBLIC "-//W3C//DTD SVG 20010904//EN"
 "http://www.w3.org/TR/2001/REC-SVG-20010904/DTD/svg10.dtd">
<svg version="1.0" xmlns="http://www.w3.org/2000/svg"
 width="57.000000pt" height="57.000000pt" viewBox="0 0 57.000000 57.000000"
 preserveAspectRatio="xMidYMid meet">

<g transform="translate(0.000000,57.000000) scale(0.100000,-0.100000)"
fill="#000000" stroke="none">
<path d="M40 531 c-19 -71 -6 -97 113 -218 96 -98 111 -110 128 -100 10 6 20
9 21 7 31 -44 205 -220 217 -220 21 0 51 30 51 51 0 14 -498 519 -512 519 -4
0 -12 -17 -18 -39z"/>
<path d="M382 496 c-49 -50 -72 -82 -72 -98 0 -31 58 -88 89 -88 31 0 177 140
159 151 -8 5 -28 -6 -55 -33 -29 -29 -47 -39 -59 -34 -15 6 -10 15 32 57 40
41 46 51 34 59 -11 7 -27 -2 -62 -37 -40 -39 -48 -44 -54 -29 -5 12 5 30 34
59 27 27 38 47 33 55 -5 8 -29 -10 -79 -62z"/>
<path d="M82 156 c-45 -47 -82 -93 -82 -104 0 -22 30 -52 51 -52 8 0 54 40
102 88 l87 88 -33 32 c-18 18 -35 32 -38 32 -3 0 -42 -38 -87 -84z"/>
</g>
</svg>
