<?xml version="1.0" standalone="no"?>
<!DOCTYPE svg PUBLIC "-//W3C//DTD SVG 20010904//EN"
 "http://www.w3.org/TR/2001/REC-SVG-20010904/DTD/svg10.dtd">
<svg version="1.0" xmlns="http://www.w3.org/2000/svg"
 width="58.000000pt" height="58.000000pt" viewBox="0 0 58.000000 58.000000"
 preserveAspectRatio="xMidYMid meet">

<g transform="translate(0.000000,58.000000) scale(0.100000,-0.100000)"
fill="#000000" stroke="none">
<path d="M70 560 c-16 -16 -20 -33 -20 -81 0 -53 -3 -65 -26 -85 -32 -31 -31
-84 3 -99 22 -9 23 -16 23 -112 0 -96 1 -103 25 -121 14 -11 25 -27 25 -35 0
-18 21 -27 66 -27 27 0 37 5 46 25 10 23 16 25 78 25 62 0 68 -2 78 -25 9 -20
19 -25 46 -25 45 0 66 9 66 27 0 8 11 24 25 35 24 18 25 25 25 121 0 96 1 103
23 112 34 15 35 68 3 99 -23 20 -26 32 -26 85 0 101 -1 101 -240 101 -187 0
-201 -1 -220 -20z m381 -46 c9 -11 10 -20 2 -32 -9 -15 -31 -17 -163 -17 -132
0 -154 2 -163 17 -8 12 -7 21 2 32 20 24 302 24 322 0z m10 -84 c16 -9 19 -22
19 -88 0 -47 -5 -83 -12 -90 -13 -13 -321 -18 -352 -6 -25 9 -23 169 2 183 23
14 318 14 343 1z m-273 -272 c2 -19 -2 -28 -18 -33 -24 -8 -50 10 -50 35 0 24
10 31 40 28 19 -2 26 -10 28 -30z m269 16 c9 -24 -10 -49 -38 -49 -24 0 -36
23 -25 51 7 19 55 18 63 -2z"/>
</g>
</svg>
