<?xml version="1.0" standalone="no"?>
<!DOCTYPE svg PUBLIC "-//W3C//DTD SVG 20010904//EN"
 "http://www.w3.org/TR/2001/REC-SVG-20010904/DTD/svg10.dtd">
<svg version="1.0" xmlns="http://www.w3.org/2000/svg"
 width="69.000000pt" height="58.000000pt" viewBox="0 0 69.000000 58.000000"
 preserveAspectRatio="xMidYMid meet">

<g transform="translate(0.000000,58.000000) scale(0.100000,-0.100000)"
fill="#000000" stroke="none">
<path d="M7 573 c-4 -3 -7 -118 -7 -255 l0 -248 29 -32 c24 -27 36 -33 70 -33
24 0 47 7 57 17 15 15 19 15 48 -3 17 -10 40 -19 51 -19 29 0 82 35 90 59 9
30 81 30 90 0 8 -24 61 -59 90 -59 29 0 82 35 90 59 4 13 16 21 38 23 l32 3 3
127 c3 126 2 128 -28 181 -16 29 -30 56 -30 60 0 3 12 7 28 9 16 2 27 9 27 18
0 12 -20 16 -107 18 l-106 3 -7 39 -7 40 -222 0 c-123 0 -226 -3 -229 -7z
m423 -163 l0 -130 -195 0 -195 0 0 130 0 130 195 0 195 0 0 -130z m80 -20 l0
-70 70 0 70 0 0 -100 c0 -109 -10 -126 -43 -71 -21 36 -73 56 -110 42 -14 -5
-28 -7 -31 -4 -8 9 -8 258 1 266 3 4 15 7 25 7 16 0 18 -9 18 -70z m93 25 c15
-25 27 -50 27 -55 0 -6 -18 -10 -40 -10 l-40 0 0 55 c0 69 15 72 53 10z m-175
-237 l3 -58 -39 0 c-31 0 -41 5 -50 25 -6 13 -26 31 -43 41 -27 13 -39 14 -70
5 -21 -6 -41 -16 -44 -21 -3 -5 -22 0 -41 12 -30 18 -41 19 -70 10 -33 -10
-34 -10 -34 19 l0 29 193 -2 192 -3 3 -57z m-288 -38 c11 -11 20 -29 20 -40 0
-24 -37 -60 -62 -60 -24 0 -58 35 -58 60 0 26 34 60 60 60 11 0 29 -9 40 -20z
m148 4 c42 -29 20 -104 -30 -104 -54 0 -79 74 -36 104 28 20 38 20 66 0z m270
0 c26 -18 29 -60 5 -86 -22 -25 -49 -23 -78 6 -27 27 -24 58 8 81 27 19 37 19
65 -1z"/>
<path d="M512 258 c5 -15 57 -18 61 -3 1 6 -13 11 -32 13 -24 3 -32 0 -29 -10z"/>
<path d="M84 109 c-10 -17 13 -36 27 -22 12 12 4 33 -11 33 -5 0 -12 -5 -16
-11z"/>
<path d="M244 109 c-10 -17 13 -36 27 -22 12 12 4 33 -11 33 -5 0 -12 -5 -16
-11z"/>
<path d="M510 101 c0 -12 6 -21 16 -21 9 0 14 7 12 17 -5 25 -28 28 -28 4z"/>
</g>
</svg>
